<svg xmlns="http://www.w3.org/2000/svg" viewBox="0 0 156.23 44.51"><defs><style>.cls-1{fill:#ff9f47;}</style></defs><g id="Layer_2" data-name="Layer 2"><g id="Layer_1-2" data-name="Layer 1"><rect class="cls-1" width="156.23" height="44.51"/><path d="M44.42,29.61v-.37c0-1.28,1.16-.18,1.16-1.77V17.23c0-1.59-1.16-.49-1.16-1.77v-.37h6.87a6.77,6.77,0,0,1,6.88,7.15,7.08,7.08,0,0,1-7.36,7.37ZM49,28.46h1.1c3.41,0,4.36-2.34,4.36-6.14,0-6-3.43-6.08-4-6.08H49Z"/><path d="M70.13,24.65a5.48,5.48,0,0,1-11-.1,5.48,5.48,0,0,1,11,.1Zm-7.44,0c0,1.32.18,4.23,2,4.23s1.9-2.75,1.9-4.05-.12-4.57-2-4.57S62.69,23.41,62.69,24.68Z"/><path d="M75.25,19.45v1a4.08,4.08,0,0,1,3-1.16c2.48,0,3.41,1.32,3.41,3.31v4.86c0,1.63,1.16.45,1.16,1.83v.31H77.31V29.3c0-1.38,1.1-.2,1.1-1.83v-5c0-.82-.19-1.69-1.36-1.69a2.19,2.19,0,0,0-1.64.74v6c0,1.59,1.24.41,1.24,1.83v.31H71V29.3c0-1.38,1.16-.2,1.16-1.83V21.74c0-1.63-1.16-.45-1.16-1.84v-.31Z"/><path d="M88.18,20.29c-.39,0-1,.17-1,.67,0,.24.1.47.1.72A1.35,1.35,0,0,1,85.86,23a1.48,1.48,0,0,1-1.55-1.36c0-1.78,2.53-2.3,4.07-2.3.56,0,4.74,0,4.74,4.38v2.84c0,.31-.17,1.88.54,1.88a.74.74,0,0,0,.53-.31l.11.14c.1.15.26.31.26.5,0,.55-1.22,1.17-1.79,1.17a2.41,2.41,0,0,1-2.4-1.59,3.72,3.72,0,0,1-3.29,1.59c-1.78,0-3.43-1-3.43-2.91,0-3,4.3-3.53,6.16-3.91C89.83,22,89.56,20.29,88.18,20.29Zm1.67,3.81a2.8,2.8,0,0,0-2.79,2.68c0,.69.33,1.78,1.18,1.78,1.4,0,1.61-1.9,1.61-2.91Z"/><path d="M101,19.59v1.34h-2v5.92c0,.7,0,1.61,1,1.61a1.18,1.18,0,0,0,.84-.4l.54.73a3.17,3.17,0,0,1-2.62,1.11c-2.3,0-3-1.32-3-2.85V21H94.6v-.31c0-1.39,1.2-.15,1.2-2.32v-.56c0-1,.18-1,1.24-1l2-.12v2.95Z"/><path d="M105.24,24.39v.24c0,1.89.72,4,3,4a3.71,3.71,0,0,0,2.87-1.6l.8.7a5.21,5.21,0,0,1-4.4,2.13,5.46,5.46,0,0,1-5.66-5.58,4.88,4.88,0,0,1,5-5c3.16,0,4.94,2,5,5.09Zm3.37-1.08c0-1.11-.23-3-1.63-3s-1.7,1.87-1.72,3Z"/></g></g></svg>