<?xml version="1.0" standalone="no"?>
<!DOCTYPE svg PUBLIC "-//W3C//DTD SVG 20010904//EN"
 "http://www.w3.org/TR/2001/REC-SVG-20010904/DTD/svg10.dtd">
<svg version="1.0" xmlns="http://www.w3.org/2000/svg"
 width="225.000000pt" height="225.000000pt" viewBox="0 0 225.000000 225.000000"
 preserveAspectRatio="xMidYMid meet">

<g transform="translate(0.000000,225.000000) scale(0.100000,-0.100000)"
fill="#000000" stroke="none">
<path d="M1411 2011 c-202 -75 -321 -257 -309 -475 l4 -68 -61 7 c-302 33
-555 152 -781 368 -57 54 -108 96 -113 92 -21 -12 -51 -137 -51 -209 0 -137
48 -254 142 -342 l47 -44 -32 0 c-28 1 -91 19 -150 45 -17 7 -18 4 -12 -51 21
-168 140 -322 292 -376 76 -27 64 -36 -49 -37 -56 -1 -78 -5 -78 -13 0 -26 64
-124 111 -169 58 -57 172 -116 240 -125 27 -4 52 -10 54 -14 13 -20 -180 -120
-302 -156 -67 -20 -121 -28 -223 -33 l-135 -6 115 -56 c223 -110 388 -145 645
-136 88 3 192 13 230 21 459 103 811 423 958 871 41 123 56 203 68 345 l10
131 86 82 c83 80 129 134 121 142 -2 2 -37 -6 -78 -19 -41 -13 -93 -27 -115
-31 l-40 -7 66 69 c61 63 131 173 111 173 -5 0 -38 -13 -73 -29 -85 -38 -198
-73 -212 -64 -7 4 -30 21 -53 40 -22 18 -67 45 -100 60 -51 24 -74 28 -169 30
-90 3 -120 0 -164 -16z"/>
</g>
</svg>
